<svg id="svg" version="1.1" xmlns="http://www.w3.org/2000/svg" xmlns:xlink="http://www.w3.org/1999/xlink" width="400" height="397.3333333333333" viewBox="0, 0, 400,397.3333333333333"><g id="svgg"><path id="path0" d="M276.247 153.707 C 276.121 153.832,275.994 158.343,275.965 163.730 C 275.935 169.118,275.999 173.437,276.107 173.330 C 276.215 173.222,276.330 169.203,276.363 164.400 C 276.428 155.043,276.464 154.760,277.471 155.547 C 278.047 155.998,278.068 155.983,277.638 155.431 C 277.366 155.082,277.271 154.670,277.427 154.515 C 277.582 154.360,277.400 154.351,277.021 154.496 C 276.501 154.696,276.393 154.604,276.579 154.120 C 276.826 153.476,276.671 153.283,276.247 153.707 M278.728 154.076 C 278.728 154.404,278.951 154.675,279.225 154.678 C 279.556 154.682,279.523 154.813,279.125 155.070 C 278.797 155.282,278.723 155.458,278.960 155.461 C 279.196 155.464,279.400 155.691,279.411 155.964 C 279.490 157.873,280.365 164.764,280.571 165.097 C 280.968 165.740,281.827 171.147,282.295 175.944 C 282.529 178.350,282.908 181.255,283.137 182.400 C 283.366 183.545,283.457 184.637,283.340 184.826 C 283.223 185.016,283.456 185.815,283.857 186.602 C 284.259 187.390,284.695 188.893,284.828 189.942 C 284.960 190.991,285.236 192.654,285.440 193.638 C 285.644 194.622,286.002 196.483,286.234 197.773 C 286.467 199.063,286.976 200.423,287.365 200.795 C 290.776 204.058,292.287 206.619,290.950 206.877 C 290.062 207.048,290.062 207.049,290.927 207.103 C 291.486 207.138,291.855 207.474,291.966 208.052 L 292.138 208.946 292.192 208.023 C 292.233 207.323,292.463 207.118,293.141 207.173 C 294.868 207.312,295.030 207.182,295.030 205.657 C 295.030 204.351,295.209 204.060,296.421 203.408 C 297.187 202.995,297.813 202.433,297.813 202.157 C 297.813 201.882,297.989 201.597,298.203 201.524 C 298.417 201.451,298.778 200.414,299.004 199.219 C 299.230 198.024,299.592 196.870,299.807 196.654 C 300.023 196.439,300.199 195.761,300.199 195.149 C 300.199 194.537,300.378 194.013,300.596 193.986 C 300.815 193.959,301.173 193.892,301.392 193.837 C 301.610 193.782,301.968 193.715,302.187 193.688 C 302.437 193.657,302.584 190.631,302.584 185.510 L 302.584 177.382 304.274 177.259 L 305.964 177.137 306.095 175.050 C 306.184 173.641,306.074 172.962,305.759 172.962 C 305.435 172.962,305.359 172.382,305.514 171.074 C 305.636 170.035,305.891 167.843,306.080 166.203 C 306.270 164.563,306.743 162.611,307.132 161.866 C 307.845 160.498,308.049 156.583,307.516 154.461 L 307.270 153.479 292.999 153.479 C 280.578 153.479,278.728 153.556,278.728 154.076 " stroke="none" fill="#fcf380" fill-rule="evenodd"></path><path id="path1" d="M169.649 129.887 C 169.503 130.033,169.384 130.570,169.384 131.080 C 169.384 131.979,169.278 132.008,166.036 132.008 C 161.905 132.008,161.431 132.176,161.431 133.641 L 161.431 134.791 158.847 134.791 C 157.422 134.791,156.240 134.970,156.213 135.189 C 156.185 135.408,156.118 135.765,156.064 135.984 C 156.009 136.203,155.942 136.650,155.915 136.978 C 155.883 137.362,155.448 137.575,154.695 137.575 C 153.539 137.575,152.544 138.389,153.367 138.664 C 154.839 139.154,153.282 140.297,151.154 140.287 C 147.982 140.273,147.966 140.277,148.179 141.094 C 148.409 141.972,147.316 143.193,146.561 142.903 C 145.957 142.671,145.612 143.344,145.713 144.556 C 145.750 145.006,145.544 145.594,145.256 145.864 C 144.942 146.157,144.732 146.187,144.732 145.940 C 144.732 145.713,144.540 145.527,144.305 145.527 C 144.070 145.527,143.942 145.840,144.021 146.223 C 144.103 146.623,144.453 146.869,144.845 146.802 C 145.738 146.649,145.727 147.353,144.831 147.698 C 144.045 148.001,147.748 149.444,149.503 149.519 C 150.050 149.543,151.194 149.870,152.047 150.247 L 153.597 150.931 150.456 151.652 C 145.548 152.778,145.347 152.819,145.012 152.743 C 144.839 152.704,143.952 152.579,143.042 152.464 C 142.133 152.350,141.325 152.193,141.247 152.115 C 141.169 152.037,140.678 152.400,140.157 152.921 C 139.542 153.535,138.969 153.776,138.525 153.606 C 138.061 153.428,137.934 153.493,138.129 153.809 C 138.302 154.088,138.169 154.274,137.797 154.274 C 137.456 154.274,137.177 154.464,137.177 154.695 C 137.177 154.927,137.339 155.016,137.537 154.894 C 137.736 154.771,137.807 155.019,137.696 155.444 C 137.559 155.965,137.085 156.258,136.242 156.340 C 134.999 156.460,134.989 156.479,134.872 158.946 C 134.775 160.969,134.627 161.434,134.076 161.444 C 132.518 161.473,132.038 162.357,132.284 164.740 C 132.504 166.874,132.468 166.998,131.640 166.998 C 130.111 166.998,129.160 167.724,129.603 168.553 C 129.817 168.952,129.883 169.388,129.751 169.520 C 129.514 169.757,129.359 171.092,129.270 173.658 C 129.179 176.267,126.841 175.504,126.833 172.863 C 126.826 170.390,126.592 169.934,125.145 169.571 C 124.272 169.352,124.056 169.069,124.056 168.148 C 124.056 167.103,123.931 166.998,122.689 166.998 C 121.438 166.998,121.312 166.889,121.198 165.706 C 121.089 164.569,120.918 164.398,119.781 164.289 C 118.598 164.175,118.489 164.049,118.489 162.798 C 118.489 161.545,118.390 161.431,117.296 161.431 C 116.159 161.431,115.817 160.857,116.056 159.344 C 116.082 159.180,115.924 159.023,115.706 158.996 C 115.487 158.969,115.129 158.902,114.911 158.847 C 114.692 158.792,113.630 158.725,112.551 158.698 C 110.721 158.651,110.581 158.575,110.464 157.555 C 110.343 156.507,110.235 156.456,107.853 156.343 C 105.415 156.227,105.368 156.203,105.368 155.093 C 105.368 153.563,105.311 153.553,96.896 153.497 C 89.922 153.451,89.484 153.492,89.088 154.233 C 88.500 155.331,88.549 155.461,89.563 155.513 C 90.059 155.539,90.191 155.632,89.861 155.721 C 88.551 156.076,89.294 162.855,90.708 163.441 C 93.452 164.578,96.323 174.997,94.135 175.880 C 93.776 176.025,93.793 176.089,94.197 176.112 C 94.630 176.136,94.595 176.320,94.043 176.931 C 93.481 177.552,93.429 177.839,93.801 178.287 C 94.061 178.600,94.122 178.949,93.937 179.064 C 93.453 179.363,92.499 178.688,92.775 178.242 C 92.902 178.035,92.744 177.866,92.423 177.866 C 91.919 177.866,91.916 177.979,92.395 178.694 C 92.822 179.331,93.283 179.493,94.388 179.392 C 95.304 179.309,95.825 179.433,95.825 179.733 C 95.825 179.996,95.552 180.099,95.208 179.968 C 94.869 179.837,94.693 179.896,94.818 180.099 C 95.207 180.728,96.550 180.415,96.358 179.740 C 96.261 179.402,96.569 179.886,97.042 180.815 C 97.833 182.370,98.357 182.709,99.702 182.535 C 100.042 182.490,100.214 183.164,100.249 184.674 C 100.320 187.827,100.303 187.779,101.368 187.942 C 102.574 188.126,102.450 187.903,102.703 190.335 C 102.821 191.471,103.124 192.723,103.377 193.118 C 103.804 193.785,103.821 193.780,103.608 193.042 C 103.387 192.278,103.400 192.276,103.949 192.982 C 104.263 193.387,104.710 193.600,104.944 193.456 C 105.241 193.272,105.368 197.246,105.368 206.736 L 105.368 220.278 104.217 220.278 C 102.858 220.278,102.584 220.816,102.584 223.492 C 102.584 225.400,102.555 225.447,101.392 225.447 C 100.293 225.447,100.199 225.558,100.199 226.839 C 100.199 228.211,99.970 228.394,98.326 228.340 C 98.061 228.331,97.867 228.437,97.894 228.576 C 98.003 229.130,97.306 231.017,96.975 231.064 C 96.780 231.091,96.218 231.136,95.726 231.163 C 95.234 231.190,94.814 231.481,94.793 231.809 C 94.700 233.216,94.593 233.400,93.865 233.400 C 92.990 233.400,91.739 234.491,92.046 234.987 C 92.158 235.169,91.936 235.265,91.553 235.201 C 91.169 235.136,90.900 234.883,90.954 234.639 C 91.073 234.110,90.400 234.042,90.085 234.551 C 89.964 234.747,90.133 235.009,90.460 235.135 C 91.283 235.451,91.207 236.186,90.358 236.115 C 89.975 236.083,87.922 236.085,85.795 236.120 L 81.928 236.183 82.311 237.191 C 82.522 237.745,82.660 238.327,82.617 238.483 C 82.441 239.129,83.985 242.899,84.685 243.533 C 85.425 244.203,85.421 244.238,84.470 245.188 C 83.325 246.333,83.230 247.125,84.195 247.478 C 87.148 248.561,87.880 249.865,85.785 250.311 C 82.444 251.023,79.396 252.238,80.157 252.556 C 86.898 255.376,86.513 255.154,85.182 255.447 C 84.505 255.596,83.753 255.956,83.510 256.249 C 83.267 256.541,82.621 256.893,82.075 257.030 C 81.528 257.168,81.181 257.442,81.304 257.641 C 81.427 257.840,81.211 258.187,80.823 258.413 C 80.360 258.682,80.304 258.827,80.659 258.835 C 81.036 258.843,81.124 259.148,80.950 259.841 C 80.702 260.829,80.716 260.835,83.442 260.835 C 88.490 260.835,89.348 261.405,84.692 261.665 L 80.517 261.898 85.190 261.863 C 87.962 261.843,89.930 261.991,90.029 262.227 C 90.121 262.445,90.213 262.266,90.233 261.829 C 90.264 261.167,90.335 261.134,90.656 261.630 C 91.037 262.219,91.263 261.764,91.101 260.736 C 91.075 260.572,91.218 260.437,91.419 260.437 C 91.620 260.437,92.112 260.313,92.512 260.161 C 93.206 259.899,93.208 259.919,92.545 260.587 C 91.516 261.626,91.699 261.909,92.757 260.916 C 93.586 260.137,94.166 260.053,99.417 259.952 L 105.169 259.841 105.295 258.748 C 105.422 257.640,106.410 257.354,109.109 257.644 C 110.932 257.840,113.382 257.213,112.928 256.667 C 112.607 256.280,112.606 256.060,112.924 255.864 C 113.418 255.558,113.249 254.681,112.691 254.655 C 111.771 254.612,109.344 253.576,109.344 253.226 C 109.344 253.011,109.177 252.939,108.974 253.065 C 108.770 253.190,108.491 253.111,108.354 252.889 C 108.217 252.667,107.444 252.469,106.637 252.449 C 105.544 252.422,105.932 252.265,108.151 251.833 C 112.613 250.964,114.939 250.866,115.591 251.519 C 115.898 251.825,116.541 252.002,117.020 251.912 C 117.500 251.822,118.027 251.736,118.191 251.719 C 119.336 251.606,118.379 249.330,116.998 248.881 C 116.178 248.614,115.154 248.153,114.723 247.856 C 114.291 247.559,113.620 247.316,113.232 247.316 C 112.258 247.316,112.345 246.645,113.391 246.086 C 115.521 244.945,119.335 244.413,120.439 245.102 C 120.802 245.329,120.907 245.305,120.740 245.034 C 120.598 244.804,120.764 244.508,121.108 244.376 C 122.018 244.027,122.070 244.062,121.782 244.831 C 121.554 245.440,121.604 245.459,122.192 244.981 C 122.561 244.681,122.874 244.055,122.888 243.589 C 122.913 242.759,122.920 242.760,123.273 243.638 C 123.471 244.130,123.722 244.533,123.832 244.533 C 123.941 244.533,123.929 244.267,123.804 243.942 C 123.655 243.555,123.934 243.215,124.612 242.958 C 125.920 242.460,125.938 242.185,124.652 242.326 C 123.427 242.461,123.409 242.283,124.553 241.329 C 125.045 240.919,125.239 240.577,124.983 240.570 C 124.728 240.563,124.429 240.740,124.317 240.964 C 124.206 241.188,124.161 241.144,124.218 240.865 C 124.361 240.157,126.044 240.128,126.044 240.834 C 126.044 241.245,126.452 241.366,127.535 241.276 L 129.026 241.153 129.054 238.547 C 129.069 237.114,129.214 235.727,129.375 235.466 C 129.742 234.871,129.137 234.840,128.554 235.422 C 128.243 235.734,128.036 235.716,127.816 235.361 C 127.608 235.023,127.674 234.968,128.028 235.187 C 128.421 235.429,128.485 235.266,128.295 234.509 C 128.122 233.820,128.258 233.328,128.734 232.919 C 129.725 232.069,130.590 231.605,130.295 232.083 C 130.146 232.324,130.589 232.444,131.422 232.389 C 132.177 232.338,132.695 232.458,132.573 232.656 C 132.451 232.853,132.139 232.896,131.881 232.751 C 131.623 232.606,131.658 232.738,131.958 233.043 C 132.383 233.475,132.546 233.487,132.688 233.099 C 132.789 232.824,133.022 232.693,133.207 232.807 C 133.392 232.921,133.673 232.805,133.831 232.549 C 134.004 232.269,133.947 232.190,133.687 232.351 C 133.450 232.497,133.136 232.423,132.989 232.186 C 132.840 231.944,133.095 231.658,133.575 231.533 C 134.477 231.297,134.501 230.586,133.618 230.291 C 133.303 230.187,133.202 230.297,133.368 230.565 C 133.520 230.812,133.456 231.014,133.224 231.014 C 132.993 231.014,132.803 230.825,132.803 230.594 C 132.803 230.363,132.345 230.676,131.785 231.290 C 131.043 232.103,130.876 232.181,131.167 231.577 C 131.477 230.935,131.438 230.749,130.992 230.749 C 130.676 230.749,130.417 230.888,130.417 231.058 C 130.417 231.228,129.836 230.835,129.125 230.186 C 128.394 229.517,127.186 228.901,126.342 228.766 C 124.401 228.454,124.476 228.232,126.927 227.038 C 130.043 225.520,129.372 224.739,123.857 223.461 L 121.074 222.815 124.175 222.544 C 125.881 222.395,127.613 222.093,128.025 221.872 C 128.438 221.652,130.140 221.471,131.809 221.471 C 133.478 221.471,135.216 221.272,135.672 221.028 C 136.128 220.784,137.682 220.418,139.125 220.215 C 145.717 219.289,144.942 219.209,146.909 221.022 C 147.888 221.925,148.957 222.664,149.283 222.664 C 149.646 222.664,149.787 222.895,149.647 223.260 C 149.521 223.588,149.073 223.857,148.652 223.857 C 147.738 223.857,147.025 225.418,147.609 226.143 C 147.830 226.417,148.519 226.640,149.141 226.640 C 150.280 226.640,153.082 227.769,153.082 228.228 C 153.082 228.463,151.935 229.011,148.608 230.366 C 146.983 231.028,146.472 232.779,147.760 233.274 C 148.318 233.488,148.383 234.223,148.257 238.857 L 148.111 244.194 150.102 244.896 C 154.758 246.539,154.647 248.012,149.805 248.838 C 147.743 249.190,147.526 250.146,149.420 250.533 C 151.847 251.030,153.044 253.678,150.841 253.678 C 150.589 253.678,149.833 254.191,149.161 254.818 C 148.490 255.446,147.845 255.863,147.728 255.746 C 147.611 255.629,147.515 255.742,147.515 255.997 C 147.515 256.252,147.694 256.461,147.913 256.461 C 148.131 256.461,148.310 256.730,148.310 257.058 C 148.310 257.386,148.451 257.654,148.624 257.654 C 148.797 257.654,148.931 257.182,148.922 256.605 C 148.910 255.819,149.130 255.521,149.801 255.415 C 150.293 255.337,150.696 255.462,150.696 255.692 C 150.696 255.922,150.472 255.976,150.199 255.812 C 149.861 255.609,149.877 255.729,150.247 256.186 C 150.866 256.949,150.313 257.112,149.583 256.382 C 149.211 256.011,149.105 256.058,149.105 256.593 C 149.105 257.472,150.274 257.939,150.710 257.234 C 150.892 256.939,150.964 256.574,150.871 256.422 C 150.617 256.012,151.534 255.765,152.883 255.882 C 154.755 256.043,159.313 257.544,158.648 257.780 C 158.320 257.896,157.358 258.205,156.509 258.467 C 154.321 259.142,153.479 259.990,153.479 261.520 L 153.479 262.823 156.064 262.823 L 158.648 262.823 158.648 263.973 C 158.648 265.437,159.123 265.606,163.226 265.606 C 166.595 265.606,167.662 266.198,166.801 267.591 C 166.635 267.859,175.075 267.969,192.322 267.923 C 206.495 267.884,217.286 267.789,216.302 267.711 C 213.795 267.512,213.328 267.310,213.868 266.659 C 214.110 266.368,214.183 266.006,214.032 265.854 C 212.440 264.262,213.562 258.932,215.507 258.848 C 215.835 258.833,216.461 258.548,216.899 258.213 C 217.779 257.540,217.985 257.820,214.960 255.563 C 214.156 254.963,214.406 254.041,215.732 252.715 C 216.077 252.370,216.174 252.087,215.947 252.087 C 214.423 252.087,212.781 249.662,213.362 248.270 C 213.878 247.036,213.858 240.955,213.325 236.978 C 213.257 236.473,211.971 236.367,204.933 236.284 C 198.931 236.213,196.786 236.304,197.217 236.612 C 197.685 236.947,197.702 237.083,197.295 237.247 C 196.907 237.404,196.957 237.593,197.494 238.000 C 197.922 238.324,198.010 238.548,197.714 238.556 C 197.361 238.565,197.217 239.437,197.217 241.549 L 197.217 244.530 194.465 244.488 C 192.952 244.465,191.507 244.574,191.255 244.730 C 191.003 244.886,188.797 244.871,186.352 244.698 L 181.909 244.382 184.493 243.994 C 185.915 243.781,188.391 243.614,189.995 243.623 L 192.913 243.639 192.753 241.800 C 192.557 239.556,192.366 238.855,191.849 238.475 C 191.629 238.314,191.806 238.166,192.247 238.145 C 192.876 238.114,192.793 237.992,191.849 237.560 L 190.656 237.014 192.048 236.962 L 193.439 236.910 192.280 236.563 C 190.936 236.161,181.165 235.981,180.573 236.347 C 180.354 236.483,180.062 236.412,179.924 236.189 C 179.787 235.967,179.868 235.785,180.105 235.785 C 180.363 235.785,180.292 235.414,179.928 234.859 C 179.594 234.349,179.403 233.851,179.503 233.751 C 179.602 233.652,179.215 233.531,178.641 233.484 C 177.358 233.377,177.358 233.378,177.250 232.075 C 177.175 231.159,176.985 231.014,175.858 231.014 C 174.724 231.014,174.553 230.881,174.553 229.999 C 174.553 229.229,174.265 228.884,173.360 228.569 C 172.636 228.316,172.147 227.856,172.117 227.396 C 172.090 226.981,172.045 226.417,172.018 226.143 C 171.991 225.870,171.387 225.590,170.676 225.522 C 169.428 225.401,169.384 225.336,169.384 223.607 C 169.384 221.326,168.822 220.278,167.599 220.278 C 166.688 220.278,166.630 220.136,166.519 217.594 L 166.402 214.911 165.109 214.786 L 163.817 214.661 163.817 198.782 C 163.817 186.368,163.926 182.893,164.314 182.857 C 164.587 182.831,164.990 182.769,165.209 182.718 C 165.427 182.668,165.830 182.599,166.103 182.566 C 166.462 182.522,166.600 181.452,166.600 178.728 C 166.600 175.051,166.625 174.950,167.515 174.950 C 168.680 174.950,169.384 174.247,169.384 173.082 C 169.384 172.251,169.784 171.966,170.718 172.134 C 171.423 172.261,172.167 171.232,172.167 170.130 C 172.167 169.294,172.359 168.986,172.883 168.986 C 173.799 168.986,174.553 168.232,174.553 167.316 C 174.553 166.659,175.336 166.391,176.773 166.555 C 177.010 166.583,177.168 166.201,177.125 165.708 C 177.016 164.461,177.570 163.896,178.691 164.110 C 179.409 164.248,179.711 164.080,179.917 163.430 C 180.081 162.915,180.412 162.652,180.739 162.777 C 181.040 162.893,181.392 162.816,181.522 162.607 C 181.651 162.398,181.567 162.227,181.336 162.227 C 179.763 162.227,181.357 161.601,183.186 161.501 C 186.104 161.341,187.797 160.428,187.140 159.367 C 186.798 158.814,186.796 158.551,187.131 158.338 C 187.379 158.180,187.649 157.694,187.731 157.256 C 187.829 156.733,188.252 156.418,188.970 156.335 C 189.925 156.225,190.060 156.039,190.060 154.825 C 190.060 153.334,190.949 151.261,191.694 151.012 C 192.018 150.905,191.962 150.490,191.504 149.605 C 190.387 147.445,190.630 145.319,192.060 144.726 C 193.611 144.084,193.560 143.993,193.876 147.929 C 194.024 149.779,194.406 151.807,194.724 152.437 C 195.254 153.486,195.232 153.676,194.470 154.707 C 193.559 155.940,193.403 157.466,194.063 158.700 C 194.372 159.277,194.360 159.649,194.020 160.059 C 193.124 161.139,195.364 161.384,205.429 161.307 L 215.308 161.233 215.539 159.642 C 215.838 157.572,216.809 155.358,217.890 154.277 C 218.653 153.514,218.682 153.362,218.137 152.950 C 215.783 151.172,216.098 145.261,218.497 146.181 C 218.826 146.308,219.349 146.201,219.659 145.944 C 220.125 145.557,220.333 145.873,220.870 147.788 C 221.227 149.059,221.760 150.905,222.055 151.889 C 223.090 155.346,223.145 156.166,222.441 157.650 C 222.069 158.433,221.876 159.185,222.012 159.322 C 222.148 159.458,222.057 159.813,221.809 160.112 C 220.989 161.100,221.860 161.232,230.010 161.354 C 239.034 161.490,241.100 161.236,239.989 160.125 C 239.614 159.750,239.461 159.443,239.648 159.443 C 239.836 159.443,240.016 159.101,240.047 158.682 C 240.079 158.263,240.385 157.094,240.728 156.084 C 241.071 155.073,241.358 153.850,241.365 153.366 C 241.404 150.637,244.165 150.323,245.610 152.883 C 246.608 154.650,246.837 157.776,246.027 158.585 C 245.634 158.978,245.654 159.155,246.127 159.454 C 246.630 159.772,246.614 159.830,246.024 159.835 C 245.641 159.838,245.328 160.020,245.328 160.239 C 245.328 160.457,245.015 160.660,244.632 160.689 C 244.250 160.719,244.831 160.882,245.924 161.052 C 248.941 161.522,262.823 161.507,262.823 161.034 C 262.823 160.815,262.443 160.636,261.979 160.636 C 261.281 160.636,261.219 160.535,261.621 160.050 C 262.612 158.857,261.373 146.880,259.983 144.212 C 259.504 143.292,259.117 141.576,258.998 139.838 C 258.890 138.265,258.634 136.262,258.429 135.388 C 257.550 131.637,257.584 130.089,258.551 129.903 C 259.042 129.808,247.992 129.709,233.996 129.683 C 220.000 129.656,208.738 129.766,208.970 129.927 C 209.636 130.388,209.634 133.515,208.965 136.978 C 208.627 138.728,208.350 141.425,208.350 142.972 C 208.350 145.431,208.229 145.899,207.392 146.686 L 206.433 147.586 205.602 146.755 C 205.145 146.298,204.771 145.602,204.771 145.209 C 204.771 144.815,204.600 144.322,204.391 144.113 C 203.967 143.689,203.756 130.697,204.163 130.040 C 204.451 129.573,170.115 129.421,169.649 129.887 M151.707 138.342 C 151.435 138.782,152.062 139.256,152.430 138.889 C 152.808 138.511,152.737 137.972,152.310 137.972 C 152.104 137.972,151.833 138.139,151.707 138.342 M246.599 142.247 C 246.681 142.666,246.359 143.140,245.787 143.439 C 244.654 144.034,243.193 144.098,243.539 143.539 C 243.674 143.320,243.567 143.141,243.302 143.141 C 243.002 143.141,243.092 142.839,243.539 142.346 C 244.449 141.341,246.409 141.277,246.599 142.247 M143.113 145.527 C 142.838 146.893,142.975 148.178,143.396 148.178 C 144.151 148.178,144.262 147.440,143.675 146.322 C 143.388 145.775,143.135 145.417,143.113 145.527 M207.934 152.231 C 208.596 154.238,207.188 156.862,206.056 155.730 C 205.081 154.755,204.916 151.237,205.799 150.261 C 206.674 149.295,207.093 149.681,207.934 152.231 M348.517 153.864 C 348.377 154.090,347.748 154.274,347.117 154.274 C 346.487 154.274,345.861 154.453,345.726 154.672 C 345.590 154.891,345.689 155.070,345.944 155.070 C 346.199 155.070,346.310 155.322,346.192 155.630 C 346.057 155.983,346.316 156.275,346.896 156.420 C 347.401 156.547,348.133 157.136,348.521 157.728 L 349.227 158.806 347.775 160.061 C 346.155 161.461,346.059 161.898,346.918 163.955 C 347.247 164.740,347.515 166.309,347.515 167.442 C 347.515 169.279,347.668 169.650,348.925 170.871 C 350.451 172.354,350.452 172.345,348.394 174.423 C 347.670 175.155,347.568 175.500,347.896 176.112 C 348.223 176.724,348.166 176.918,347.613 177.062 C 347.231 177.162,352.052 177.264,358.326 177.290 C 365.903 177.320,369.821 177.196,369.992 176.919 C 370.166 176.637,370.444 176.663,370.849 177.000 C 371.337 177.404,371.514 177.381,371.798 176.873 C 372.030 176.458,372.496 176.316,373.194 176.450 C 374.161 176.635,374.206 176.584,373.784 175.794 C 373.419 175.113,373.440 174.894,373.888 174.722 C 374.328 174.554,374.441 173.611,374.403 170.418 C 374.358 166.707,374.418 166.346,375.050 166.511 C 375.472 166.622,375.746 166.470,375.746 166.125 C 375.746 165.813,376.103 165.173,376.541 164.704 C 377.385 163.798,377.618 161.652,376.919 161.221 C 376.631 161.042,376.637 160.801,376.938 160.437 C 377.207 160.114,377.229 159.822,376.995 159.677 C 376.786 159.548,376.686 159.130,376.771 158.747 C 377.167 156.984,377.185 154.672,376.803 154.672 C 376.575 154.672,376.736 154.417,377.161 154.105 C 377.834 153.610,376.077 153.533,363.351 153.496 C 353.711 153.468,348.685 153.593,348.517 153.864 M364.533 160.318 C 365.187 160.973,365.133 162.955,364.442 163.647 C 363.288 164.801,359.803 163.862,358.575 162.066 C 357.635 160.691,363.256 159.042,364.533 160.318 M365.178 168.665 C 365.730 169.454,365.727 169.607,365.139 170.256 C 363.875 171.653,357.902 170.754,358.478 169.253 C 359.065 167.725,364.204 167.274,365.178 168.665 M367.793 174.950 C 368.340 175.378,368.564 175.732,368.290 175.737 C 368.017 175.742,367.793 176.021,367.793 176.358 C 367.793 176.869,367.252 176.951,364.513 176.855 C 362.148 176.772,361.260 176.601,361.332 176.243 C 361.387 175.969,361.242 175.746,361.010 175.746 C 360.181 175.746,361.097 174.956,362.346 174.595 C 364.523 173.965,366.717 174.108,367.793 174.950 M145.791 179.947 C 146.257 181.162,145.320 181.445,142.872 180.828 L 140.557 180.243 142.346 179.826 C 144.923 179.226,145.522 179.247,145.791 179.947 M150.424 185.208 L 152.485 185.512 150.696 185.974 C 149.712 186.228,148.456 186.529,147.905 186.642 C 147.354 186.755,146.511 187.213,146.033 187.659 C 144.663 188.935,142.939 188.691,138.277 186.562 L 135.998 185.521 137.880 185.025 C 138.915 184.752,140.567 184.502,141.551 184.471 C 142.535 184.440,143.787 184.289,144.334 184.137 C 144.886 183.983,146.003 184.092,146.845 184.382 C 147.680 184.670,149.290 185.041,150.424 185.208 M352.333 193.998 C 351.767 194.357,351.623 199.249,352.155 200.109 C 352.295 200.335,352.544 202.148,352.710 204.137 C 352.875 206.126,353.239 208.648,353.519 209.742 C 353.798 210.835,353.997 213.416,353.960 215.476 C 353.919 217.799,354.066 219.431,354.348 219.770 C 354.863 220.391,365.273 220.447,366.899 219.838 C 367.431 219.638,367.793 219.655,367.793 219.878 C 367.793 220.084,368.043 220.157,368.348 220.040 C 368.879 219.837,369.493 217.495,369.017 217.495 C 368.890 217.495,368.820 215.124,368.860 212.227 C 368.948 205.949,368.653 202.041,368.152 202.832 C 367.886 203.252,367.804 203.199,367.799 202.604 C 367.795 202.026,367.679 201.944,367.342 202.281 C 366.336 203.286,365.881 201.861,366.031 198.180 C 366.156 195.138,366.100 194.733,365.640 195.340 C 365.165 195.967,365.077 195.976,364.863 195.418 C 364.730 195.073,364.754 194.866,364.915 194.958 C 365.077 195.051,365.553 194.792,365.974 194.383 C 366.729 193.648,366.728 193.638,365.908 193.638 C 365.450 193.638,364.986 193.862,364.876 194.135 C 364.715 194.533,364.669 194.533,364.644 194.135 C 364.606 193.546,353.247 193.419,352.333 193.998 M146.095 195.058 C 146.719 195.683,146.940 198.167,146.478 199.371 C 145.773 201.208,137.177 199.377,137.177 197.390 C 137.177 195.965,137.279 195.923,143.340 194.868 C 144.433 194.678,145.360 194.502,145.399 194.478 C 145.438 194.453,145.751 194.715,146.095 195.058 M257.605 199.304 C 257.577 199.468,257.510 199.781,257.455 200.000 C 257.401 200.219,257.333 200.666,257.306 200.994 C 257.270 201.433,256.756 201.592,255.368 201.597 C 254.329 201.600,253.278 201.734,253.033 201.895 C 252.196 202.443,252.407 206.582,253.355 208.189 L 254.221 209.656 252.949 210.792 C 252.250 211.417,251.412 211.928,251.087 211.928 C 250.249 211.928,250.355 212.625,251.235 212.904 C 253.236 213.539,253.704 217.247,254.305 237.248 C 254.473 242.850,254.650 244.583,255.094 244.951 C 255.546 245.326,255.666 246.697,255.666 251.479 L 255.666 257.532 257.012 258.918 C 258.092 260.030,258.278 260.445,257.955 261.021 C 257.717 261.447,257.665 262.729,257.827 264.170 C 257.977 265.507,258.100 266.914,258.101 267.296 C 258.101 267.938,258.790 267.992,266.998 267.992 L 275.895 267.992 276.019 263.519 C 276.137 259.259,275.812 244.364,275.632 245.825 C 275.585 246.208,275.373 246.521,275.160 246.521 C 274.932 246.521,274.723 248.932,274.651 252.386 L 274.530 258.250 274.442 252.386 C 274.390 248.941,274.195 246.521,273.970 246.521 C 272.414 246.521,271.372 244.329,271.610 241.555 C 271.770 239.688,271.680 238.375,271.336 237.551 C 270.889 236.479,270.919 236.182,271.581 235.173 C 272.312 234.058,272.300 232.580,271.551 231.610 C 271.382 231.392,271.114 230.497,270.955 229.622 C 270.795 228.748,270.287 227.495,269.826 226.839 C 268.734 225.288,268.675 221.160,269.715 219.037 L 270.420 217.597 269.117 215.657 C 268.400 214.591,267.451 213.409,267.008 213.032 C 266.210 212.352,266.217 212.334,267.734 211.035 L 269.265 209.723 268.459 208.341 C 267.566 206.810,266.913 203.976,267.453 203.976 C 268.164 203.976,268.865 201.624,268.489 200.497 C 268.004 199.040,257.835 197.926,257.605 199.304 M146.141 209.152 C 146.998 209.478,147.113 209.665,146.737 210.118 C 146.110 210.874,146.092 212.744,146.701 213.882 C 147.739 215.822,146.178 216.527,142.166 215.930 C 140.294 215.652,138.674 215.280,138.565 215.104 C 138.373 214.793,140.550 212.730,141.084 212.718 C 142.340 212.689,142.477 211.885,141.387 210.940 C 139.977 209.718,140.207 209.434,142.867 209.110 C 144.002 208.972,144.964 208.834,145.004 208.803 C 145.044 208.773,145.556 208.929,146.141 209.152 M134.791 230.354 C 134.791 230.792,136.333 231.809,136.997 231.809 C 137.626 231.809,137.001 230.664,136.164 230.283 C 134.885 229.700,134.791 229.705,134.791 230.354 M131.157 234.956 C 130.641 235.374,130.363 235.861,130.539 236.038 C 130.714 236.214,131.008 236.117,131.190 235.822 C 131.372 235.527,131.682 235.385,131.878 235.506 C 132.075 235.628,132.235 235.382,132.235 234.961 C 132.235 234.029,132.300 234.029,131.157 234.956 M132.092 237.253 C 132.127 238.494,132.753 238.956,134.394 238.955 C 134.910 238.954,134.913 238.905,134.413 238.589 C 134.095 238.388,133.714 238.299,133.565 238.390 C 133.416 238.482,133.016 237.982,132.675 237.279 L 132.056 236.000 132.092 237.253 M135.056 240.424 C 134.509 240.972,134.803 242.147,135.487 242.141 C 135.999 242.137,136.048 242.049,135.672 241.811 C 135.391 241.632,135.276 241.189,135.417 240.823 C 135.680 240.137,135.520 239.960,135.056 240.424 M135.236 243.427 C 135.541 243.997,135.781 244.059,136.398 243.729 C 137.348 243.220,137.428 242.871,136.515 243.221 C 136.087 243.386,135.950 243.320,136.126 243.034 C 136.293 242.763,136.100 242.615,135.625 242.651 C 135.007 242.698,134.929 242.854,135.236 243.427 M123.304 245.195 C 123.790 245.792,123.774 245.843,123.174 245.619 C 122.798 245.478,122.368 245.562,122.218 245.804 C 122.052 246.072,122.126 246.134,122.404 245.962 C 122.681 245.791,122.863 245.943,122.863 246.347 C 122.863 246.896,122.969 246.927,123.459 246.521 C 124.243 245.870,124.218 245.078,123.403 244.765 C 122.833 244.546,122.820 244.600,123.304 245.195 M143.226 252.957 C 142.862 253.321,142.904 253.593,143.407 254.150 C 144.258 255.090,144.732 255.064,144.732 254.076 C 144.732 253.638,144.508 253.325,144.235 253.380 C 143.961 253.434,143.782 253.255,143.837 252.982 C 143.961 252.362,143.826 252.357,143.226 252.957 M145.129 254.486 C 145.129 254.697,145.338 254.871,145.593 254.871 C 145.848 254.871,145.940 254.987,145.798 255.130 C 145.656 255.272,145.850 255.630,146.229 255.926 C 146.866 256.423,146.858 256.444,146.123 256.210 L 145.328 255.957 146.123 256.594 C 147.504 257.700,147.956 257.375,147.086 255.900 C 146.302 254.572,145.129 253.724,145.129 254.486 M277.311 261.537 C 277.363 261.892,277.618 262.225,277.878 262.275 C 278.210 262.339,278.216 262.301,277.897 262.149 C 277.565 261.989,277.571 261.853,277.921 261.637 C 278.271 261.421,278.240 261.283,277.806 261.117 C 277.417 260.967,277.248 261.110,277.311 261.537 M196.288 262.558 C 196.831 263.100,195.920 263.393,193.653 263.406 C 191.188 263.420,190.294 263.039,191.264 262.386 C 191.882 261.970,195.836 262.105,196.288 262.558 M283.996 262.723 C 287.003 262.790,291.923 262.790,294.930 262.723 C 297.937 262.655,295.477 262.600,289.463 262.600 C 283.449 262.600,280.989 262.655,283.996 262.723 " stroke="none" fill="#daa304" fill-rule="evenodd"></path><path id="path2" d="M243.539 142.346 C 243.092 142.839,243.002 143.141,243.302 143.141 C 243.567 143.141,243.674 143.320,243.539 143.539 C 243.193 144.098,244.654 144.034,245.787 143.439 C 246.359 143.140,246.681 142.666,246.599 142.247 C 246.409 141.277,244.449 141.341,243.539 142.346 M191.750 144.819 C 190.642 145.354,190.521 147.704,191.504 149.605 C 191.962 150.490,192.018 150.905,191.694 151.012 C 190.949 151.261,190.060 153.334,190.060 154.825 C 190.060 156.039,189.925 156.225,188.970 156.335 C 188.252 156.418,187.829 156.733,187.731 157.256 C 187.649 157.694,187.379 158.181,187.131 158.339 C 186.797 158.551,186.796 158.810,187.125 159.333 C 187.493 159.917,187.390 160.160,186.528 160.733 C 185.511 161.410,185.601 161.426,190.457 161.404 C 194.000 161.387,195.157 161.273,194.487 161.005 C 193.730 160.701,193.639 160.518,194.018 160.061 C 194.360 159.649,194.372 159.277,194.063 158.700 C 193.403 157.466,193.559 155.940,194.470 154.707 C 195.255 153.646,195.266 153.512,194.669 152.357 C 194.321 151.684,194.034 150.543,194.032 149.821 C 194.026 147.249,193.520 144.334,193.086 144.361 C 192.843 144.376,192.242 144.582,191.750 144.819 M219.713 145.874 C 219.537 146.159,219.049 146.301,218.628 146.191 C 216.080 145.525,215.675 151.091,218.137 152.950 C 218.682 153.362,218.653 153.514,217.890 154.277 C 216.812 155.355,215.860 157.539,215.506 159.742 L 215.235 161.431 219.049 161.385 C 221.147 161.360,222.550 161.257,222.167 161.157 C 221.394 160.955,221.255 160.419,221.875 160.036 C 222.098 159.898,222.171 159.610,222.038 159.396 C 221.906 159.181,222.090 158.389,222.448 157.635 C 223.102 156.256,223.000 154.135,222.206 152.595 C 222.011 152.218,221.685 151.029,221.481 149.953 C 220.952 147.163,220.113 145.227,219.713 145.874 M241.849 151.868 C 241.576 152.311,241.352 153.027,241.352 153.460 C 241.352 153.893,241.071 155.073,240.728 156.084 C 240.385 157.094,240.079 158.263,240.047 158.682 C 240.016 159.101,239.836 159.443,239.648 159.443 C 239.461 159.443,239.616 159.752,239.994 160.130 C 240.644 160.781,240.630 160.831,239.724 161.084 C 239.198 161.232,240.736 161.343,243.141 161.332 C 246.305 161.318,247.020 161.235,245.726 161.034 C 244.742 160.881,244.250 160.729,244.632 160.696 C 245.015 160.663,245.328 160.457,245.328 160.239 C 245.328 160.020,245.641 159.838,246.024 159.835 C 246.614 159.830,246.630 159.772,246.127 159.454 C 245.654 159.155,245.634 158.978,246.027 158.585 C 246.837 157.776,246.608 154.650,245.610 152.883 C 244.538 150.984,242.701 150.488,241.849 151.868 M25.447 157.455 L 25.447 161.431 24.056 161.431 L 22.664 161.431 22.664 165.382 L 22.664 169.333 21.372 169.458 L 20.080 169.583 19.966 173.459 L 19.852 177.336 54.658 177.336 C 85.309 177.336,89.469 177.407,89.513 177.932 C 89.591 178.864,89.653 179.092,89.968 179.587 C 90.325 180.148,95.825 180.200,95.825 179.642 C 95.825 179.433,95.178 179.321,94.388 179.392 C 93.283 179.493,92.822 179.331,92.395 178.694 C 91.916 177.979,91.919 177.866,92.423 177.866 C 92.744 177.866,92.902 178.035,92.775 178.242 C 92.499 178.688,93.453 179.363,93.937 179.064 C 94.122 178.949,94.061 178.600,93.801 178.287 C 93.430 177.840,93.474 177.559,94.005 176.972 C 94.531 176.391,94.565 176.179,94.159 176.017 C 93.769 175.861,93.763 175.800,94.135 175.777 C 96.484 175.629,93.409 164.560,90.708 163.441 C 89.294 162.855,88.551 156.076,89.861 155.721 C 90.191 155.632,90.059 155.539,89.563 155.513 C 88.551 155.461,88.501 155.330,89.080 154.248 C 89.485 153.491,89.005 153.479,57.469 153.479 L 25.447 153.479 25.447 157.455 M377.161 154.088 C 376.736 154.409,376.577 154.672,376.808 154.672 C 377.038 154.672,377.172 155.164,377.105 155.765 C 376.804 158.491,376.795 159.287,377.062 159.720 C 377.220 159.975,377.164 160.298,376.938 160.437 C 376.713 160.577,376.635 160.864,376.766 161.076 C 376.896 161.287,377.707 160.735,378.567 159.849 C 380.202 158.164,380.562 156.330,379.441 155.399 C 379.163 155.168,379.054 154.788,379.198 154.554 C 379.357 154.296,379.580 154.432,379.762 154.897 C 380.015 155.542,380.068 155.490,380.091 154.573 C 380.124 153.300,378.547 153.039,377.161 154.088 M105.368 155.235 C 105.368 156.079,105.554 156.262,106.410 156.262 C 107.395 156.262,107.421 156.214,106.873 155.390 C 106.023 154.109,105.368 154.042,105.368 155.235 M359.971 160.459 C 357.894 161.368,357.915 161.813,360.101 163.339 C 362.460 164.986,365.010 164.258,365.010 161.937 C 365.010 159.842,362.835 159.204,359.971 160.459 M180.915 161.914 C 180.915 162.086,181.104 162.227,181.336 162.227 C 181.567 162.227,181.651 162.398,181.522 162.607 C 181.392 162.816,181.047 162.895,180.754 162.783 C 180.461 162.670,180.111 162.867,179.976 163.219 C 179.775 163.743,179.965 163.834,181.018 163.714 C 182.511 163.543,183.092 161.602,181.649 161.602 C 181.245 161.602,180.915 161.742,180.915 161.914 M376.143 165.208 C 375.851 165.755,375.728 166.317,375.869 166.459 C 376.010 166.600,376.314 166.287,376.543 165.763 C 376.940 164.859,376.952 164.856,376.788 165.706 C 376.693 166.198,376.780 166.600,376.982 166.600 C 377.184 166.600,377.308 166.064,377.258 165.408 C 377.147 163.954,376.844 163.900,376.143 165.208 M359.757 168.305 C 358.207 168.918,358.090 169.678,359.437 170.375 C 361.091 171.230,364.319 171.162,365.139 170.256 C 366.822 168.396,363.014 167.015,359.757 168.305 M173.936 168.550 C 173.729 168.747,173.201 168.995,172.763 169.100 C 172.249 169.224,172.424 169.308,173.260 169.338 C 174.165 169.370,174.553 169.205,174.553 168.787 C 174.553 168.095,174.454 168.058,173.936 168.550 M362.346 174.595 C 361.097 174.956,360.181 175.746,361.010 175.746 C 361.242 175.746,361.387 175.969,361.332 176.243 C 361.260 176.601,362.148 176.772,364.513 176.855 C 367.252 176.951,367.793 176.869,367.793 176.358 C 367.793 176.021,368.017 175.742,368.290 175.737 C 368.564 175.732,368.340 175.378,367.793 174.950 C 366.717 174.108,364.523 173.965,362.346 174.595 M373.639 174.804 C 373.501 174.942,373.575 175.404,373.803 175.830 C 374.173 176.522,374.099 176.592,373.128 176.474 C 372.528 176.401,371.972 176.536,371.892 176.774 C 371.807 177.025,372.334 177.228,373.150 177.259 C 374.391 177.306,374.553 177.198,374.553 176.330 C 374.553 175.790,374.329 175.345,374.056 175.342 C 373.724 175.338,373.757 175.207,374.155 174.950 C 374.483 174.738,374.558 174.562,374.321 174.559 C 374.084 174.555,373.777 174.666,373.639 174.804 M96.085 179.905 C 95.926 180.320,95.576 180.506,95.216 180.368 C 94.708 180.173,94.688 180.276,95.088 181.023 C 95.349 181.510,95.527 181.987,95.484 182.082 C 95.402 182.265,95.670 182.333,97.614 182.622 C 98.270 182.720,98.599 182.723,98.344 182.630 C 98.089 182.536,97.536 181.729,97.116 180.835 C 96.509 179.546,96.296 179.354,96.085 179.905 M44.135 184.065 L 44.135 185.265 38.867 185.376 L 33.598 185.487 33.475 186.768 L 33.351 188.049 28.107 188.160 L 22.863 188.270 22.738 189.563 C 22.624 190.748,22.500 190.855,21.235 190.855 L 19.856 190.855 19.968 226.456 C 20.066 257.587,20.154 262.104,20.676 262.434 C 21.654 263.052,89.861 262.946,89.862 262.326 C 89.862 261.955,88.682 261.838,85.190 261.863 L 80.517 261.898 84.692 261.665 C 89.348 261.405,88.490 260.835,83.442 260.835 C 80.716 260.835,80.702 260.829,80.950 259.841 C 81.124 259.148,81.036 258.843,80.659 258.835 C 80.304 258.827,80.360 258.682,80.823 258.413 C 81.211 258.187,81.427 257.840,81.304 257.641 C 81.181 257.442,81.528 257.168,82.075 257.030 C 82.621 256.893,83.267 256.541,83.510 256.249 C 83.753 255.956,84.505 255.596,85.182 255.447 C 86.513 255.154,86.898 255.376,80.157 252.556 C 79.396 252.238,82.444 251.023,85.785 250.311 C 87.880 249.865,87.148 248.561,84.195 247.478 C 83.230 247.125,83.325 246.333,84.470 245.188 C 85.421 244.238,85.425 244.203,84.685 243.533 C 83.985 242.899,82.441 239.129,82.617 238.483 C 82.660 238.327,82.522 237.745,82.311 237.191 L 81.928 236.183 65.619 236.183 L 49.310 236.183 49.208 209.642 L 49.105 183.101 46.620 182.983 L 44.135 182.865 44.135 184.065 M102.687 192.168 C 102.740 192.562,102.942 192.860,103.136 192.830 C 103.331 192.800,103.657 193.014,103.863 193.306 C 104.168 193.741,104.210 193.742,104.096 193.310 C 104.019 193.020,103.789 192.810,103.584 192.843 C 103.379 192.875,103.072 192.575,102.902 192.177 C 102.608 191.490,102.596 191.489,102.687 192.168 M365.922 194.409 C 365.467 194.834,364.977 195.063,364.832 194.919 C 364.688 194.774,364.690 194.969,364.837 195.352 C 365.090 196.011,365.132 196.011,365.640 195.340 C 366.100 194.733,366.156 195.138,366.031 198.180 C 365.881 201.861,366.336 203.286,367.342 202.281 C 367.679 201.944,367.795 202.026,367.799 202.604 C 367.804 203.199,367.886 203.252,368.152 202.832 C 368.653 202.041,368.948 205.949,368.860 212.227 C 368.820 215.124,368.921 217.495,369.085 217.495 C 369.250 217.495,369.384 212.127,369.384 205.567 L 369.384 193.638 368.067 193.638 C 367.314 193.638,366.396 193.968,365.922 194.409 M249.540 201.885 C 249.414 202.011,249.533 202.388,249.805 202.724 C 250.198 203.210,250.198 203.273,249.801 203.035 C 249.220 202.686,249.132 203.247,249.681 203.797 C 249.920 204.036,247.978 204.175,244.413 204.175 C 240.188 204.175,238.755 204.300,238.718 204.672 C 238.690 204.945,238.646 212.147,238.618 220.676 L 238.569 236.183 225.871 236.183 L 213.174 236.183 213.309 237.078 C 213.876 240.816,213.907 246.966,213.367 248.260 C 212.781 249.662,214.415 252.087,215.947 252.087 C 216.174 252.087,216.077 252.370,215.732 252.715 C 214.305 254.141,214.149 254.958,215.159 255.706 C 215.678 256.090,216.461 256.675,216.899 257.005 L 217.694 257.605 216.899 258.213 C 216.461 258.548,215.835 258.833,215.507 258.848 C 213.562 258.932,212.440 264.262,214.032 265.854 C 214.183 266.006,214.121 266.354,213.894 266.628 C 213.235 267.421,213.879 267.561,219.331 267.809 C 225.164 268.075,226.374 268.253,226.037 268.799 C 225.884 269.045,229.992 269.185,237.376 269.185 C 244.090 269.185,248.861 269.035,248.734 268.829 C 248.348 268.205,249.659 267.992,253.876 267.992 C 258.347 267.992,258.574 267.872,257.990 265.808 C 257.554 264.263,257.569 261.584,258.019 260.875 C 258.267 260.482,257.972 259.907,257.019 258.925 L 255.666 257.532 255.666 251.479 C 255.666 246.697,255.546 245.326,255.094 244.951 C 254.650 244.583,254.473 242.850,254.305 237.248 C 253.704 217.247,253.236 213.539,251.235 212.904 C 250.355 212.625,250.249 211.928,251.087 211.928 C 251.412 211.928,252.250 211.417,252.949 210.792 L 254.221 209.656 253.355 208.189 C 252.424 206.611,252.190 202.440,253.003 201.922 C 253.232 201.776,252.597 201.657,251.593 201.657 C 250.589 201.657,249.665 201.760,249.540 201.885 M369.032 218.754 C 369.007 219.337,368.762 219.905,368.489 220.015 C 368.100 220.172,368.102 220.222,368.502 220.247 C 369.132 220.286,369.513 219.371,369.265 218.413 C 369.139 217.928,369.063 218.039,369.032 218.754 M97.864 228.588 C 97.564 228.778,97.385 229.096,97.466 229.295 C 97.548 229.493,97.927 229.335,98.310 228.943 C 99.040 228.196,98.794 227.999,97.864 228.588 M91.239 233.704 C 90.623 234.142,90.769 235.101,91.468 235.203 C 91.857 235.260,92.110 234.947,92.159 234.346 C 92.239 233.378,91.966 233.187,91.239 233.704 M179.884 234.791 C 180.262 235.368,180.355 235.785,180.105 235.785 C 179.868 235.785,179.786 235.965,179.921 236.184 C 180.070 236.424,180.434 236.446,180.839 236.238 C 181.209 236.048,181.721 235.968,181.977 236.061 C 182.547 236.266,182.208 234.701,181.600 234.326 C 181.350 234.171,181.302 234.290,181.479 234.630 C 181.638 234.938,181.512 234.876,181.198 234.493 C 180.217 233.296,179.074 233.556,179.884 234.791 M89.651 235.405 C 89.522 235.614,89.502 235.785,89.606 235.785 C 89.710 235.785,90.079 235.894,90.425 236.027 C 90.771 236.159,91.054 236.089,91.054 235.870 C 91.054 235.314,89.937 234.943,89.651 235.405 M192.445 236.581 C 193.363 236.874,193.333 236.903,192.048 236.956 L 190.656 237.014 191.849 237.560 C 192.793 237.992,192.876 238.114,192.247 238.145 C 191.806 238.166,191.629 238.314,191.849 238.475 C 192.366 238.855,192.557 239.556,192.753 241.800 L 192.913 243.639 189.995 243.623 C 188.391 243.614,185.915 243.781,184.493 243.994 L 181.909 244.382 186.352 244.698 C 188.797 244.871,191.003 244.886,191.255 244.730 C 191.507 244.574,192.952 244.465,194.465 244.488 L 197.217 244.530 197.217 241.549 C 197.217 239.437,197.361 238.565,197.714 238.556 C 198.010 238.548,197.922 238.324,197.494 238.000 C 196.957 237.593,196.907 237.404,197.295 237.247 C 198.440 236.786,196.552 236.196,194.036 236.229 C 192.144 236.253,191.718 236.348,192.445 236.581 M91.720 260.391 C 91.321 260.543,91.008 260.794,91.024 260.950 C 91.152 262.180,90.982 262.587,90.656 261.829 C 90.357 261.133,90.311 261.122,90.286 261.742 C 90.255 262.526,91.519 263.217,91.745 262.539 C 91.823 262.304,92.204 262.195,92.592 262.296 C 93.379 262.502,94.396 261.517,94.152 260.785 C 93.961 260.213,92.717 260.012,91.720 260.391 M191.264 262.386 C 190.294 263.039,191.188 263.420,193.653 263.406 C 195.920 263.393,196.831 263.100,196.288 262.558 C 195.836 262.105,191.882 261.970,191.264 262.386 M165.100 266.075 C 165.302 266.682,166.495 267.434,166.789 267.140 C 166.914 267.015,166.904 266.619,166.766 266.260 C 166.484 265.525,164.856 265.344,165.100 266.075 M181.710 268.588 C 182.234 269.220,185.096 269.442,184.713 268.821 C 184.589 268.621,184.713 268.367,184.988 268.256 C 185.262 268.145,184.526 268.041,183.351 268.023 C 181.495 267.996,181.280 268.070,181.710 268.588 " stroke="none" fill="#bc7b04" fill-rule="evenodd"></path><path id="path3" d="M204.163 130.040 C 203.756 130.697,203.967 143.689,204.391 144.113 C 204.600 144.322,204.771 144.815,204.771 145.209 C 204.771 145.602,205.145 146.298,205.602 146.755 L 206.433 147.586 207.392 146.686 C 208.229 145.899,208.350 145.431,208.350 142.972 C 208.350 141.425,208.627 138.728,208.965 136.978 C 209.634 133.515,209.636 130.388,208.970 129.927 C 208.322 129.477,204.454 129.569,204.163 130.040 M258.551 129.903 C 257.584 130.089,257.550 131.637,258.429 135.388 C 258.634 136.262,258.890 138.265,258.998 139.838 C 259.117 141.576,259.504 143.292,259.983 144.212 C 261.373 146.880,262.612 158.857,261.621 160.050 C 261.219 160.535,261.281 160.636,261.979 160.636 C 262.443 160.636,262.823 160.815,262.823 161.034 C 262.823 161.276,264.571 161.426,267.296 161.419 C 271.316 161.407,271.691 161.347,270.998 160.822 C 270.573 160.501,270.398 160.239,270.609 160.239 C 270.820 160.239,271.022 159.506,271.057 158.611 C 271.098 157.571,271.381 156.781,271.843 156.419 C 272.335 156.033,272.383 155.887,271.992 155.958 C 271.677 156.016,271.351 155.751,271.267 155.369 C 271.158 154.873,271.293 154.743,271.740 154.915 C 272.645 155.262,272.511 154.380,271.584 153.884 C 270.367 153.233,269.300 147.117,270.404 147.117 C 270.634 147.117,270.719 146.951,270.594 146.747 C 270.468 146.544,270.550 146.263,270.775 146.123 C 271.001 145.984,271.089 145.713,270.970 145.521 C 270.852 145.329,270.745 143.709,270.734 141.920 C 270.708 137.916,270.583 137.575,269.142 137.575 L 267.992 137.575 267.945 133.897 C 267.919 131.874,267.919 130.084,267.945 129.920 C 267.994 129.612,260.134 129.597,258.551 129.903 M152.339 138.715 C 152.000 139.173,151.939 139.189,152.131 138.767 C 152.345 138.299,152.294 138.272,151.894 138.641 C 151.213 139.271,151.676 140.358,152.625 140.358 C 153.522 140.358,153.960 139.133,153.288 138.505 C 152.943 138.183,152.692 138.238,152.339 138.715 M143.564 146.000 C 143.550 146.370,143.710 146.779,143.919 146.908 C 144.128 147.037,144.197 147.410,144.071 147.737 C 143.884 148.225,143.732 148.240,143.217 147.823 C 142.733 147.431,142.659 147.429,142.889 147.813 C 143.087 148.143,142.912 148.327,142.369 148.360 C 141.919 148.387,141.372 148.454,141.153 148.509 C 140.934 148.564,140.592 148.631,140.392 148.658 C 140.192 148.685,140.058 149.694,140.094 150.900 C 140.144 152.600,140.257 152.959,140.596 152.497 C 140.836 152.169,141.113 151.981,141.211 152.079 C 141.308 152.177,142.133 152.350,143.042 152.464 C 143.952 152.579,144.839 152.704,145.012 152.743 C 145.347 152.819,145.548 152.778,150.456 151.652 L 153.597 150.931 152.047 150.247 C 151.194 149.870,150.050 149.543,149.503 149.519 C 147.748 149.444,144.045 148.001,144.831 147.698 C 145.214 147.550,145.527 147.251,145.527 147.032 C 145.527 146.814,145.252 146.740,144.915 146.869 C 144.519 147.021,144.178 146.791,143.946 146.216 C 143.686 145.568,143.582 145.510,143.564 146.000 M205.799 150.261 C 204.916 151.237,205.081 154.755,206.056 155.730 C 207.188 156.862,208.596 154.238,207.934 152.231 C 207.093 149.681,206.674 149.295,205.799 150.261 M272.818 152.373 C 272.781 152.834,272.552 152.975,272.113 152.807 C 271.665 152.635,271.520 152.732,271.649 153.118 C 271.752 153.426,272.000 153.681,272.200 153.684 C 272.401 153.687,272.776 153.824,273.034 153.989 C 273.292 154.153,273.616 154.105,273.753 153.883 C 273.891 153.661,273.826 153.479,273.610 153.479 C 273.393 153.479,273.139 153.077,273.044 152.584 C 272.935 152.016,272.852 151.939,272.818 152.373 M323.554 153.861 C 322.143 154.134,321.070 154.672,321.935 154.672 C 322.154 154.672,322.333 154.940,322.333 155.268 C 322.333 155.596,322.139 155.866,321.902 155.867 C 321.665 155.869,322.008 156.226,322.664 156.660 C 323.320 157.095,324.304 157.454,324.851 157.459 C 325.997 157.468,330.957 158.992,329.948 159.024 C 329.580 159.036,328.897 159.583,328.429 160.239 C 327.962 160.895,327.369 161.432,327.110 161.432 C 326.852 161.432,325.533 161.956,324.180 162.596 C 319.622 164.752,319.268 167.876,323.493 168.659 C 327.562 169.414,327.501 169.383,327.959 170.878 C 328.433 172.421,328.244 173.129,327.441 172.821 C 327.160 172.713,326.597 172.846,326.189 173.118 C 325.781 173.389,324.682 173.831,323.746 174.101 C 322.810 174.371,322.150 174.762,322.278 174.970 C 322.407 175.178,322.283 175.348,322.003 175.348 C 321.722 175.348,321.935 175.661,322.476 176.044 L 323.459 176.740 321.471 176.975 C 320.378 177.105,325.567 177.237,333.002 177.268 C 347.724 177.330,348.515 177.268,347.888 176.097 C 347.570 175.503,347.678 175.147,348.394 174.423 C 350.452 172.345,350.451 172.354,348.925 170.871 C 347.668 169.650,347.515 169.279,347.515 167.442 C 347.515 166.309,347.247 164.740,346.918 163.955 C 346.059 161.898,346.155 161.461,347.775 160.061 L 349.227 158.806 348.521 157.728 C 348.133 157.136,347.401 156.547,346.896 156.420 C 346.316 156.275,346.057 155.983,346.192 155.630 C 346.310 155.322,346.199 155.070,345.944 155.070 C 345.689 155.070,345.590 154.891,345.726 154.672 C 345.861 154.453,346.487 154.274,347.117 154.274 C 347.748 154.274,348.374 154.095,348.509 153.877 C 348.796 153.412,325.942 153.398,323.554 153.861 M274.220 154.175 C 274.121 154.339,274.278 154.693,274.569 154.962 C 274.997 155.357,275.087 155.300,275.039 154.664 C 274.980 153.873,274.556 153.620,274.220 154.175 M204.677 161.315 C 205.171 161.410,205.887 161.407,206.267 161.307 C 206.647 161.207,206.243 161.130,205.368 161.134 C 204.493 161.138,204.182 161.220,204.677 161.315 M132.116 165.408 C 132.116 166.392,132.194 166.794,132.289 166.302 C 132.383 165.810,132.383 165.005,132.289 164.513 C 132.194 164.021,132.116 164.423,132.116 165.408 M142.346 179.826 L 140.557 180.243 142.872 180.828 C 145.320 181.445,146.257 181.162,145.791 179.947 C 145.522 179.247,144.923 179.226,142.346 179.826 M144.334 184.137 C 143.787 184.289,142.535 184.440,141.551 184.471 C 140.567 184.502,138.915 184.752,137.880 185.025 L 135.998 185.521 138.277 186.562 C 142.939 188.691,144.663 188.935,146.033 187.659 C 146.511 187.213,147.354 186.755,147.905 186.642 C 148.456 186.529,149.712 186.228,150.696 185.974 L 152.485 185.512 150.424 185.208 C 149.290 185.041,147.680 184.670,146.845 184.382 C 146.003 184.092,144.886 183.983,144.334 184.137 M341.044 193.880 C 340.911 194.013,335.558 194.136,329.149 194.153 C 317.503 194.184,317.500 194.185,324.652 194.495 C 332.331 194.827,334.799 195.087,331.113 195.174 C 328.747 195.231,327.824 196.024,330.125 196.024 C 330.839 196.024,332.402 196.382,333.598 196.819 C 336.398 197.843,337.081 197.824,337.294 196.720 C 337.389 196.228,337.491 197.122,337.520 198.708 L 337.575 201.590 338.897 201.590 C 340.453 201.590,342.116 203.075,341.719 204.110 C 341.581 204.470,341.820 205.362,342.251 206.091 C 343.205 207.709,344.486 214.380,344.166 216.070 C 344.038 216.744,343.853 217.708,343.755 218.211 C 343.634 218.831,343.795 219.192,344.254 219.333 C 344.626 219.448,345.241 219.707,345.621 219.910 C 346.791 220.534,354.859 220.387,354.331 219.751 C 354.069 219.435,353.920 217.720,353.960 215.476 C 353.997 213.416,353.798 210.835,353.519 209.742 C 353.239 208.648,352.875 206.126,352.710 204.137 C 352.544 202.148,352.295 200.335,352.155 200.109 C 351.623 199.249,351.767 194.357,352.333 193.998 C 352.662 193.790,350.553 193.648,347.084 193.644 C 343.895 193.641,341.177 193.747,341.044 193.880 M143.340 194.868 C 137.279 195.923,137.177 195.965,137.177 197.390 C 137.177 199.377,145.773 201.208,146.478 199.371 C 147.103 197.744,146.263 193.937,145.399 194.478 C 145.360 194.502,144.433 194.678,143.340 194.868 M339.364 194.831 C 340.341 195.080,340.140 195.143,338.247 195.182 C 336.797 195.211,336.029 195.081,336.183 194.831 C 336.460 194.383,337.601 194.383,339.364 194.831 M268.489 196.303 C 268.216 196.405,267.992 197.010,267.992 197.647 C 267.992 198.712,267.870 198.812,266.501 198.864 L 265.010 198.920 266.569 199.162 C 268.752 199.500,269.574 203.976,267.453 203.976 C 266.913 203.976,267.566 206.810,268.459 208.341 L 269.265 209.723 267.734 211.035 C 266.217 212.334,266.210 212.352,267.008 213.032 C 267.451 213.409,268.400 214.591,269.117 215.657 L 270.420 217.597 269.715 219.037 C 268.675 221.160,268.734 225.288,269.826 226.839 C 270.287 227.495,270.795 228.748,270.955 229.622 C 271.114 230.497,271.382 231.392,271.551 231.610 C 272.300 232.580,272.312 234.058,271.581 235.173 C 270.919 236.182,270.889 236.479,271.336 237.551 C 271.680 238.375,271.770 239.688,271.610 241.555 C 271.373 244.322,272.413 246.521,273.959 246.521 C 274.170 246.521,274.386 249.082,274.454 252.386 L 274.576 258.250 274.664 252.386 C 274.717 248.800,274.906 246.521,275.149 246.521 C 275.368 246.521,275.578 246.208,275.617 245.825 C 275.656 245.442,275.806 248.618,275.951 252.883 C 276.236 261.266,276.338 261.828,277.592 261.923 C 278.396 261.983,278.399 261.965,277.681 261.388 C 276.983 260.827,276.993 260.817,277.833 261.225 C 278.325 261.463,278.728 261.838,278.728 262.057 C 278.728 262.316,282.698 262.439,290.030 262.407 L 301.333 262.358 301.959 261.039 C 302.674 259.533,302.787 257.654,302.163 257.654 C 301.932 257.654,301.872 257.863,302.030 258.119 C 302.232 258.446,302.091 258.494,301.556 258.278 C 301.138 258.110,299.358 257.999,297.602 258.031 L 294.409 258.089 294.562 256.480 C 294.714 254.888,294.701 254.871,293.378 254.871 C 291.958 254.871,291.096 254.008,290.598 252.087 C 290.001 249.784,288.381 246.650,287.177 245.469 C 286.171 244.483,285.885 243.869,285.885 242.701 C 285.885 241.876,285.705 240.206,285.484 238.990 C 285.264 237.774,284.890 235.484,284.654 233.900 C 284.383 232.089,283.872 230.503,283.276 229.625 C 282.755 228.857,282.127 227.067,281.879 225.645 C 281.509 223.518,281.294 223.062,280.665 223.062 C 279.694 223.062,279.064 221.581,278.718 218.489 L 278.451 216.103 278.337 219.085 C 278.273 220.726,278.144 221.665,278.049 221.173 C 277.955 220.681,277.720 220.278,277.528 220.278 C 277.336 220.278,277.113 219.339,277.033 218.191 L 276.887 216.103 276.778 218.688 C 276.425 227.101,276.040 223.767,275.950 211.531 C 275.895 203.986,275.878 197.660,275.911 197.473 C 276.111 196.359,270.652 195.499,268.489 196.303 M336.382 200.994 C 336.382 201.322,336.561 201.590,336.779 201.590 C 336.998 201.590,337.177 201.322,337.177 200.994 C 337.177 200.666,336.998 200.398,336.779 200.398 C 336.561 200.398,336.382 200.666,336.382 200.994 M322.156 202.561 C 320.217 203.544,320.331 203.976,322.531 203.976 C 323.960 203.976,324.056 203.901,324.056 202.783 C 324.056 202.127,324.011 201.615,323.956 201.644 C 323.902 201.674,323.091 202.087,322.156 202.561 M142.867 209.110 C 140.207 209.434,139.977 209.718,141.387 210.940 C 142.477 211.885,142.340 212.689,141.084 212.718 C 140.550 212.730,138.373 214.793,138.565 215.104 C 138.674 215.280,140.294 215.652,142.166 215.930 C 146.178 216.527,147.739 215.822,146.701 213.882 C 146.092 212.744,146.110 210.874,146.737 210.118 C 147.123 209.654,145.502 208.424,145.004 208.803 C 144.964 208.834,144.002 208.972,142.867 209.110 M319.775 217.776 C 319.280 217.872,318.978 218.116,319.103 218.319 C 319.393 218.787,323.658 218.807,323.658 218.340 C 323.658 218.027,321.541 217.415,320.924 217.549 C 320.788 217.579,320.271 217.681,319.775 217.776 M140.557 219.951 C 139.463 220.149,137.853 220.504,136.978 220.740 C 136.103 220.976,133.777 221.307,131.809 221.476 C 129.841 221.645,127.425 221.973,126.441 222.206 C 125.457 222.439,123.847 222.656,122.863 222.688 L 121.074 222.747 123.857 223.426 C 129.337 224.764,129.998 225.542,126.927 227.038 C 124.476 228.232,124.401 228.454,126.342 228.766 C 127.186 228.901,128.394 229.517,129.125 230.186 C 129.836 230.835,130.417 231.228,130.417 231.058 C 130.417 230.888,130.676 230.749,130.992 230.749 C 131.438 230.749,131.477 230.935,131.167 231.577 C 130.876 232.181,131.043 232.103,131.785 231.290 C 132.345 230.676,132.803 230.363,132.803 230.594 C 132.803 230.825,132.993 231.014,133.224 231.014 C 133.456 231.014,133.520 230.812,133.368 230.565 C 133.202 230.297,133.303 230.187,133.618 230.291 C 134.501 230.586,134.477 231.297,133.575 231.533 C 133.095 231.658,132.840 231.944,132.989 232.186 C 133.136 232.423,133.450 232.497,133.687 232.351 C 133.947 232.190,134.004 232.269,133.831 232.549 C 133.673 232.805,133.392 232.921,133.207 232.807 C 133.022 232.693,132.789 232.824,132.688 233.099 C 132.546 233.487,132.383 233.475,131.958 233.043 C 131.658 232.738,131.623 232.606,131.881 232.751 C 132.139 232.896,132.451 232.853,132.573 232.656 C 132.695 232.458,132.177 232.338,131.422 232.389 C 130.589 232.444,130.146 232.324,130.295 232.083 C 130.590 231.605,129.725 232.069,128.734 232.919 C 128.258 233.328,128.122 233.820,128.295 234.509 C 128.485 235.266,128.421 235.429,128.028 235.187 C 127.674 234.968,127.608 235.023,127.816 235.361 C 128.036 235.716,128.243 235.734,128.554 235.422 C 129.211 234.765,129.789 234.906,129.225 235.586 C 128.813 236.083,128.864 236.183,129.531 236.183 C 129.972 236.183,130.431 235.926,130.551 235.612 C 130.930 234.626,132.235 234.133,132.235 234.976 C 132.235 235.399,132.024 235.614,131.724 235.499 C 131.443 235.391,131.213 235.501,131.213 235.743 C 131.213 235.985,131.502 236.183,131.856 236.183 C 132.302 236.183,132.435 236.425,132.290 236.978 C 132.176 237.415,132.272 237.890,132.504 238.033 C 132.770 238.197,132.807 238.101,132.604 237.773 C 132.385 237.419,132.437 237.349,132.769 237.553 C 133.036 237.719,133.143 238.149,133.006 238.509 C 132.814 239.012,132.866 239.056,133.226 238.699 C 133.925 238.005,134.791 238.519,134.791 239.629 C 134.791 240.240,134.955 240.502,135.231 240.332 C 135.528 240.148,135.584 240.336,135.403 240.904 C 135.237 241.428,135.307 241.750,135.588 241.750 C 135.854 241.750,135.783 242.008,135.416 242.374 C 135.072 242.718,134.791 243.112,134.791 243.249 C 134.791 243.387,135.006 243.284,135.268 243.022 C 135.956 242.335,136.572 242.433,135.988 243.136 C 135.440 243.797,136.361 244.441,137.153 243.951 C 137.389 243.805,137.475 243.931,137.355 244.245 C 136.939 245.329,137.891 246.918,138.956 246.918 C 139.756 246.918,139.960 247.116,139.960 247.889 C 139.960 248.955,140.543 249.488,141.721 249.497 C 142.518 249.503,143.112 250.859,142.912 252.218 C 142.836 252.733,142.985 252.875,143.427 252.706 C 143.937 252.510,143.961 252.573,143.560 253.056 C 143.150 253.550,143.206 253.620,143.901 253.486 C 144.538 253.363,144.733 253.529,144.738 254.198 C 144.742 254.844,144.833 254.929,145.088 254.526 C 145.367 254.087,145.595 254.144,146.275 254.824 C 147.112 255.661,147.455 256.717,146.747 256.279 C 146.544 256.154,146.274 256.217,146.149 256.420 C 146.023 256.623,146.235 256.738,146.618 256.676 C 147.002 256.614,147.540 256.741,147.813 256.959 C 148.150 257.227,148.310 257.210,148.310 256.908 C 148.310 256.662,148.131 256.461,147.913 256.461 C 147.694 256.461,147.515 256.252,147.515 255.997 C 147.515 255.742,147.611 255.629,147.728 255.746 C 147.845 255.863,148.490 255.446,149.161 254.818 C 149.833 254.191,150.589 253.678,150.841 253.678 C 153.044 253.678,151.847 251.030,149.420 250.533 C 147.526 250.146,147.743 249.190,149.805 248.838 C 154.647 248.012,154.758 246.539,150.102 244.896 L 148.111 244.194 148.257 238.857 C 148.383 234.223,148.318 233.488,147.760 233.274 C 146.472 232.779,146.983 231.028,148.608 230.366 C 151.935 229.011,153.082 228.463,153.082 228.228 C 153.082 227.769,150.280 226.640,149.141 226.640 C 148.519 226.640,147.830 226.417,147.609 226.143 C 147.025 225.418,147.738 223.857,148.652 223.857 C 149.073 223.857,149.521 223.588,149.647 223.260 C 149.787 222.895,149.646 222.664,149.283 222.664 C 148.957 222.664,147.914 221.948,146.965 221.074 C 145.096 219.351,144.480 219.243,140.557 219.951 M136.164 230.283 C 137.001 230.664,137.626 231.809,136.997 231.809 C 136.333 231.809,134.791 230.792,134.791 230.354 C 134.791 229.705,134.885 229.700,136.164 230.283 M128.827 238.502 C 128.827 238.757,128.424 238.979,127.932 238.994 C 127.084 239.021,127.079 239.039,127.833 239.339 C 128.618 239.652,129.595 238.806,129.062 238.274 C 128.933 238.144,128.827 238.247,128.827 238.502 M124.222 240.608 C 124.087 240.828,124.083 241.115,124.215 241.246 C 124.346 241.377,124.453 241.276,124.453 241.021 C 124.453 240.765,124.677 240.563,124.950 240.570 C 125.224 240.577,125.045 240.919,124.553 241.329 C 123.409 242.283,123.427 242.461,124.652 242.326 C 125.199 242.266,125.646 242.295,125.646 242.391 C 125.646 242.486,125.199 242.734,124.652 242.942 C 124.105 243.150,123.658 243.475,123.658 243.663 C 123.658 244.178,126.368 244.178,126.686 243.663 C 126.870 243.365,126.777 243.329,126.403 243.554 C 125.928 243.840,125.926 243.790,126.391 243.217 C 126.853 242.647,126.853 242.544,126.391 242.539 C 125.959 242.534,125.970 242.444,126.441 242.111 C 126.890 241.793,126.915 241.639,126.541 241.487 C 126.267 241.376,126.044 241.070,126.044 240.807 C 126.044 240.219,124.563 240.057,124.222 240.608 M122.894 243.589 C 122.877 244.055,122.561 244.681,122.192 244.981 C 121.600 245.462,121.554 245.439,121.799 244.787 C 122.013 244.217,121.931 244.103,121.443 244.290 C 121.095 244.423,120.724 244.533,120.620 244.533 C 120.516 244.533,120.558 244.739,120.714 244.992 C 120.908 245.306,120.822 245.341,120.439 245.102 C 119.335 244.413,115.521 244.945,113.391 246.086 C 112.345 246.645,112.258 247.316,113.232 247.316 C 113.620 247.316,114.291 247.552,114.723 247.840 C 117.888 249.955,121.272 249.958,121.272 247.845 C 121.272 247.018,121.657 246.728,122.565 246.871 C 122.729 246.897,122.863 246.640,122.863 246.299 C 122.863 245.931,122.676 245.794,122.404 245.962 C 122.126 246.134,122.052 246.072,122.218 245.804 C 122.368 245.562,122.798 245.478,123.174 245.619 C 123.774 245.843,123.790 245.792,123.304 245.195 C 122.812 244.591,122.834 244.546,123.502 244.797 C 124.114 245.027,124.172 244.973,123.811 244.508 C 123.567 244.194,123.268 243.668,123.146 243.340 C 122.995 242.931,122.916 243.009,122.894 243.589 M111.928 251.107 C 111.710 251.201,110.099 251.534,108.350 251.846 C 106.172 252.235,105.632 252.425,106.637 252.449 C 107.444 252.469,108.217 252.667,108.354 252.889 C 108.491 253.111,108.770 253.190,108.974 253.065 C 109.177 252.939,109.344 253.008,109.344 253.218 C 109.344 254.078,115.574 255.358,115.768 254.538 C 116.422 251.771,114.456 250.014,111.928 251.107 M148.887 255.620 C 148.570 255.937,148.696 257.203,149.068 257.432 C 149.267 257.555,149.332 257.252,149.213 256.760 C 149.036 256.026,149.093 255.954,149.528 256.362 C 150.318 257.100,150.878 256.964,150.247 256.186 C 149.877 255.729,149.861 255.609,150.199 255.812 C 150.472 255.976,150.696 255.932,150.696 255.714 C 150.696 255.331,149.251 255.256,148.887 255.620 M151.222 256.008 C 151.016 256.148,150.800 257.112,150.741 258.151 L 150.636 260.040 152.228 260.040 C 153.103 260.040,154.061 259.798,154.356 259.503 C 154.651 259.208,155.604 258.747,156.472 258.479 C 157.341 258.211,158.320 257.896,158.648 257.780 C 158.979 257.663,158.093 257.217,156.660 256.780 C 153.793 255.905,151.791 255.620,151.222 256.008 M301.728 258.935 C 302.137 258.798,302.170 258.930,301.867 259.497 C 301.649 259.905,301.466 260.413,301.461 260.626 C 301.456 260.839,301.214 261.077,300.924 261.154 C 300.550 261.253,300.531 261.198,300.858 260.965 C 301.111 260.784,297.291 260.693,292.368 260.763 C 286.084 260.853,283.496 260.764,283.681 260.465 C 283.838 260.210,285.505 260.040,287.851 260.040 C 291.465 260.040,295.997 259.058,293.638 258.786 C 293.201 258.736,294.543 258.595,296.620 258.473 C 299.107 258.326,300.533 258.398,300.795 258.683 C 301.014 258.921,301.434 259.034,301.728 258.935 M296.123 261.927 C 293.772 261.997,289.925 261.997,287.575 261.927 C 285.224 261.857,287.147 261.799,291.849 261.799 C 296.551 261.799,298.474 261.857,296.123 261.927 " stroke="none" fill="#edc83d" fill-rule="evenodd"></path><path id="path4" d="M270.843 146.042 C 270.591 146.345,270.502 146.712,270.646 146.856 C 270.790 147.000,270.700 147.117,270.447 147.117 C 269.305 147.117,270.329 153.212,271.584 153.884 C 272.511 154.380,272.645 155.262,271.740 154.915 C 271.293 154.743,271.158 154.873,271.267 155.369 C 271.351 155.751,271.677 156.016,271.992 155.958 C 272.383 155.887,272.335 156.033,271.843 156.419 C 271.381 156.781,271.098 157.571,271.057 158.611 C 271.022 159.506,270.820 160.239,270.609 160.239 C 270.398 160.239,270.573 160.501,270.998 160.822 C 271.444 161.160,272.658 161.411,273.877 161.419 L 275.984 161.431 275.865 158.288 C 275.799 156.559,275.861 155.216,276.002 155.303 C 276.142 155.391,276.232 155.046,276.200 154.537 C 276.169 154.028,275.919 153.612,275.646 153.612 C 275.145 153.612,274.993 154.023,275.129 155.011 C 275.191 155.463,275.110 155.463,274.619 155.011 C 274.172 154.599,274.143 154.342,274.493 153.911 C 274.878 153.438,274.816 153.420,274.108 153.798 C 273.645 154.044,273.138 154.118,272.981 153.962 C 272.825 153.806,272.503 153.678,272.266 153.678 C 272.029 153.678,271.752 153.426,271.649 153.118 C 271.524 152.743,271.665 152.635,272.076 152.793 C 272.886 153.104,273.448 151.123,272.687 150.640 C 272.299 150.394,272.291 150.309,272.658 150.304 C 272.989 150.300,273.106 149.751,273.019 148.608 C 272.928 147.416,272.724 146.949,272.329 147.024 C 271.965 147.092,272.021 146.932,272.489 146.565 C 272.905 146.239,273.042 145.898,272.815 145.757 C 272.598 145.623,272.297 145.715,272.145 145.960 C 271.942 146.289,271.794 146.285,271.585 145.948 C 271.378 145.613,271.178 145.638,270.843 146.042 M276.541 154.219 C 276.395 154.599,276.539 154.682,277.021 154.496 C 277.400 154.351,277.582 154.360,277.427 154.515 C 277.271 154.670,277.366 155.082,277.638 155.431 C 278.074 155.991,278.051 156.001,277.435 155.518 C 277.053 155.218,276.716 155.039,276.688 155.120 C 276.514 155.624,276.421 159.251,276.137 176.541 C 275.860 193.473,275.744 195.886,275.187 196.328 C 274.655 196.749,274.649 196.814,275.149 196.725 C 275.899 196.593,275.835 195.424,275.952 211.531 C 276.040 223.764,276.425 227.102,276.778 218.688 L 276.887 216.103 277.033 218.191 C 277.113 219.339,277.336 220.278,277.528 220.278 C 277.720 220.278,277.955 220.681,278.049 221.173 C 278.144 221.665,278.273 220.726,278.337 219.085 L 278.451 216.103 278.718 218.489 C 279.064 221.581,279.694 223.062,280.665 223.062 C 281.294 223.062,281.509 223.518,281.879 225.645 C 282.127 227.067,282.755 228.857,283.276 229.625 C 283.872 230.503,284.383 232.089,284.654 233.900 C 284.890 235.484,285.264 237.774,285.484 238.990 C 285.705 240.206,285.885 241.876,285.885 242.701 C 285.885 243.869,286.171 244.483,287.177 245.469 C 288.381 246.650,290.001 249.784,290.598 252.087 C 291.096 254.008,291.958 254.871,293.378 254.871 C 294.701 254.871,294.714 254.888,294.562 256.480 L 294.409 258.089 297.602 258.031 C 299.358 257.999,301.138 258.110,301.556 258.278 C 302.091 258.494,302.232 258.446,302.030 258.119 C 301.872 257.863,301.932 257.654,302.163 257.654 C 302.454 257.654,302.584 251.854,302.584 238.966 L 302.584 220.278 324.334 220.278 C 343.546 220.278,348.207 220.080,344.533 219.417 C 343.673 219.262,343.627 218.952,344.087 216.444 C 344.472 214.347,343.333 207.925,342.251 206.091 C 341.820 205.362,341.581 204.470,341.719 204.110 C 342.116 203.075,340.453 201.590,338.897 201.590 L 337.575 201.590 337.520 198.708 C 337.491 197.122,337.389 196.228,337.294 196.720 C 337.081 197.824,336.398 197.843,333.598 196.819 C 332.402 196.382,330.839 196.024,330.125 196.024 C 327.824 196.024,328.747 195.231,331.113 195.174 C 334.799 195.087,332.331 194.827,324.652 194.495 C 317.500 194.185,317.503 194.184,329.149 194.153 C 335.558 194.136,340.914 194.010,341.051 193.873 C 341.362 193.562,301.601 193.583,300.790 193.894 C 300.465 194.019,300.199 194.603,300.199 195.192 C 300.199 195.781,300.023 196.439,299.807 196.654 C 299.592 196.870,299.230 198.024,299.004 199.219 C 298.778 200.414,298.417 201.451,298.203 201.524 C 297.989 201.597,297.813 201.882,297.813 202.157 C 297.813 202.433,297.187 202.995,296.421 203.408 C 295.209 204.060,295.030 204.351,295.030 205.657 C 295.030 207.176,294.865 207.311,293.172 207.177 C 292.557 207.128,292.258 207.373,292.133 208.027 C 291.964 208.913,291.955 208.915,291.903 208.079 C 291.868 207.520,291.532 207.151,290.954 207.040 L 290.060 206.868 290.964 206.814 C 292.355 206.730,290.731 204.014,287.365 200.795 C 286.976 200.423,286.467 199.063,286.234 197.773 C 286.002 196.483,285.644 194.622,285.440 193.638 C 285.236 192.654,284.960 190.991,284.828 189.942 C 284.695 188.893,284.259 187.390,283.857 186.602 C 283.456 185.815,283.223 185.016,283.340 184.826 C 283.457 184.637,283.366 183.545,283.137 182.400 C 282.908 181.255,282.529 178.350,282.295 175.944 C 281.827 171.147,280.968 165.740,280.571 165.097 C 280.365 164.764,279.490 157.873,279.411 155.964 C 279.400 155.691,279.196 155.464,278.960 155.461 C 278.723 155.458,278.797 155.282,279.125 155.070 C 279.523 154.813,279.556 154.682,279.225 154.678 C 278.951 154.675,278.728 154.448,278.728 154.175 C 278.728 153.501,276.801 153.540,276.541 154.219 M307.516 154.461 C 308.049 156.583,307.845 160.498,307.132 161.866 C 306.743 162.611,306.270 164.563,306.080 166.203 C 305.891 167.843,305.636 170.035,305.514 171.074 C 305.357 172.401,305.433 172.962,305.768 172.962 C 306.102 172.962,306.195 173.620,306.078 175.149 L 305.911 177.336 312.498 177.297 C 316.121 177.275,320.070 177.141,321.272 176.998 L 323.459 176.740 322.476 176.044 C 321.935 175.661,321.722 175.348,322.003 175.348 C 322.283 175.348,322.407 175.178,322.278 174.970 C 322.150 174.762,322.810 174.371,323.746 174.101 C 324.682 173.831,325.781 173.389,326.189 173.118 C 326.597 172.846,327.160 172.713,327.441 172.821 C 328.244 173.129,328.433 172.421,327.959 170.878 C 327.501 169.383,327.562 169.414,323.493 168.659 C 319.268 167.876,319.622 164.752,324.180 162.596 C 325.533 161.956,326.852 161.432,327.110 161.432 C 327.369 161.432,327.962 160.895,328.429 160.239 C 328.897 159.583,329.580 159.036,329.948 159.024 C 330.957 158.992,325.997 157.468,324.851 157.459 C 324.304 157.454,323.320 157.095,322.664 156.660 C 322.008 156.226,321.665 155.869,321.902 155.867 C 322.139 155.866,322.333 155.596,322.333 155.268 C 322.333 154.940,322.154 154.672,321.935 154.672 C 321.070 154.672,322.143 154.134,323.554 153.861 C 324.390 153.698,321.130 153.550,316.160 153.525 L 307.270 153.479 307.516 154.461 M336.183 194.831 C 336.029 195.081,336.797 195.211,338.247 195.182 C 340.140 195.143,340.341 195.080,339.364 194.831 C 337.601 194.383,336.460 194.383,336.183 194.831 M337.177 200.994 C 337.177 201.322,336.998 201.590,336.779 201.590 C 336.561 201.590,336.382 201.322,336.382 200.994 C 336.382 200.666,336.561 200.398,336.779 200.398 C 336.998 200.398,337.177 200.666,337.177 200.994 M324.056 202.783 C 324.056 203.901,323.960 203.976,322.531 203.976 C 320.331 203.976,320.217 203.544,322.156 202.561 C 323.091 202.087,323.902 201.674,323.956 201.644 C 324.011 201.615,324.056 202.127,324.056 202.783 M322.416 217.744 C 324.393 218.139,323.857 218.688,321.495 218.688 C 319.284 218.688,318.153 218.088,319.775 217.776 C 320.271 217.681,320.788 217.579,320.924 217.549 C 321.061 217.519,321.732 217.607,322.416 217.744 M121.272 247.564 C 121.272 248.092,121.380 248.119,121.869 247.714 C 122.197 247.441,122.465 247.151,122.465 247.069 C 122.465 246.986,122.197 246.918,121.869 246.918 C 121.541 246.918,121.272 247.209,121.272 247.564 M296.620 258.473 C 294.543 258.595,293.201 258.736,293.638 258.786 C 295.997 259.058,291.465 260.040,287.851 260.040 C 285.505 260.040,283.838 260.210,283.681 260.465 C 283.496 260.764,286.084 260.853,292.368 260.763 C 297.291 260.693,301.111 260.784,300.858 260.965 C 300.531 261.198,300.550 261.253,300.924 261.154 C 301.214 261.077,301.456 260.839,301.461 260.626 C 301.466 260.413,301.649 259.905,301.867 259.497 C 302.170 258.930,302.137 258.798,301.728 258.935 C 301.434 259.034,301.014 258.921,300.795 258.683 C 300.533 258.398,299.107 258.326,296.620 258.473 M291.750 261.928 C 296.924 261.999,300.199 262.195,300.199 262.433 C 300.199 262.648,300.400 262.823,300.645 262.823 C 300.953 262.823,300.938 262.639,300.596 262.227 C 300.180 261.725,298.761 261.645,291.701 261.721 L 283.300 261.812 291.750 261.928 M184.988 268.256 C 183.120 269.009,186.975 269.185,205.368 269.185 C 223.910 269.185,227.636 269.010,225.611 268.233 C 224.860 267.944,185.705 267.967,184.988 268.256 M248.918 268.374 C 247.767 269.102,249.475 269.197,261.800 269.091 C 271.202 269.011,274.128 268.869,274.255 268.489 C 274.457 267.881,249.874 267.769,248.918 268.374 " stroke="none" fill="#f4e144" fill-rule="evenodd"></path></g></svg>